<?xml version="1.0" encoding="utf-8"?>
<!-- Generator: Adobe Illustrator 26.0.3, SVG Export Plug-In . SVG Version: 6.00 Build 0)  -->
<svg version="1.0" id="Layer_1" xmlns="http://www.w3.org/2000/svg" xmlns:xlink="http://www.w3.org/1999/xlink" x="0px" y="0px"
	 viewBox="0 0 890 700" style="enable-background:new 0 0 890 700;" xml:space="preserve">
<style type="text/css">
	.st0{fill:#206B33;}
</style>
<g id="g22">
	<g id="g28">
		<path id="path30" class="st0" d="M172.9,284.4c3.8,0.1,7.5,0.4,11.3,0.8c17.3,1.8,30.8,8.8,40.4,20.8
			c9.5,11.9,14.2,26.3,14.2,43.4c0,20.3-6.1,37.5-18.3,51.4c-6.1,7.1-13.7,12.8-22.1,16.9c-8,3.9-16.7,6-25.5,6.2v-12.9
			c21.6-5.7,33.9-24.7,33.9-60c0-34.8-15.1-48.6-33.9-53L172.9,284.4z M117.8,284.9l-10.3-0.5l1,8.8v12.6l0.7,19.5v63.8l-0.7,24.7
			l-1,10.6l10.6-0.6h11.4l16.5,0.6l24.5-0.6h2.3v-12.9c-5.2,1.4-10.5,2-15.9,2h-17.8v-27.5l-0.3-30.1l0.3-29.9V296h16.4
			c5.8-0.1,11.6,0.5,17.3,1.8v-13.4h-7.2l-18,0.5C147.7,284.9,117.8,284.9,117.8,284.9z"/>
	</g>
	<g id="g32">
		<path id="path34" class="st0" d="M368.8,414.5l2.3-12.3l4.2-30.2l6.1-45.6l2.5-19.5c1.1-7.2,2.1-14.4,3.1-21.8
			c5.6,0.6,11.3,0.7,17,0.2l45.8,95.9c15.7-31.7,31.1-63.8,47-95.7c5.8,0.5,11.6,0.3,17.3-0.6c5.7,46.5,11.1,92.8,17,139.1
			c-10.7-0.8-21.4-0.6-32.1,0.5l-9.3-92.9l-19.3,40.9l-18.6,37.8l-6.5,14.2h-7.5l-44.3-92.8c-3,30.8-5.8,61.5-8.7,92.3
			c-5.9-0.6-11.9-0.6-17.8,0L368.8,414.5z"/>
	</g>
	<g id="g36">
		<path id="path38" class="st0" d="M651,327.1c9.1,0.7,18.2,0.7,27.3,0l0.3,24.4c8.2-15.9,10.1-26.5,33.7-26.8
			c-1.3,9.1-1.6,18.3-0.8,27.5l-2.1,1.8c0.5-0.6-26.8-8.7-29.9,14.7c-0.1,1.4-0.2,2.8-0.2,4.3v3.6c0,15.9,0.3,31.9,1.5,47.8
			l-29.8-0.2C652,402.2,655.2,347.4,651,327.1"/>
	</g>
	<g id="g40">
		<path id="path42" class="st0" d="M598.5,372.3c-3.3,1.8-8.7,3.1-13.7,5.4V369c21.1-7.2,14.7-23.9,0-28.5V324
			c5.8-0.4,11.6,0.3,17.2,1.8c16.5,4.4,22.6,18.2,22.6,33.9v41.5c0,6.1-2,12.6,4.9,15.1c2.2,0.8,4.6,1.2,7,1l-0.7,5.1
			c-30.7,16.7-36.7-10.6-37.9-9c-3.3,4.8-7.8,8.6-13.1,11V413C599.7,411.9,597.3,392.5,598.5,372.3 M584.7,377.7V369
			c-3.2,1-6.5,1.7-9.8,2.3c-15.7,2.3-31.6,10.5-31.6,28.5c0,12.3,6.1,22.9,19.6,26.2c7.5,1.8,15.1,1.5,21.8-1.6V413
			c-0.4,0.1-0.9,0.2-1.3,0.2c-8.2,0-12.6-5.6-12.3-16.7C571.5,385.7,577.8,380.8,584.7,377.7 M584.7,324c-12.1,1-23.6,6.4-34.5,13.4
			l2.5,12.6l2-0.3c10.3-10.3,21.6-11.8,30.1-9.2L584.7,324z"/>
	</g>
	<g id="g44">
		<path id="path46" class="st0" d="M736.5,328.4l-0.8-25.2l29-12.9l-0.3,8.2l-0.8,9.8v20.5c5.9-0.2,12,0.5,17.3-1.6
			c-0.8,3.7-0.8,7.5,0,11.1l-18.5-0.5v59.4c0,7.2,0.3,12.4,2.1,15c3.9,5.4,11.6,5.2,18,2.5l-0.7,8.4l-4.1,1.5
			c-16.9,6-39.1,4.3-41.4-16.2c-0.3-2.7-0.5-5.4-0.5-8.2v-62.3c-4.4,0.4-8.8,0.6-13.2,0.5c0.8-3.6,0.8-7.3,0-10.8L736.5,328.4z"/>
	</g>
</g>
<g id="g48">
	<path id="path50" class="st0" d="M237.1,418h114.7l2.4,5.7H234.7L237.1,418z M243.1,403.8h102.7l2.1,5H241L243.1,403.8z
		 M248.8,390.2h91.3l1.9,4.4h-95L248.8,390.2z M254.4,377.1h80.2l1.7,4h-83.6L254.4,377.1z M259.8,364.3h69.4l1.5,3.6h-72.5
		L259.8,364.3z M264.9,352H324l1.3,3.2h-61.8L264.9,352z M269.9,340.1h49l1.2,2.8h-51.3L269.9,340.1z M274.8,328.6h39.4l1,2.3h-41.3
		L274.8,328.6z"/>
</g>
<g id="g54">
	<g id="g60">
		<path id="path62" class="st0" d="M294.4,272.2c-5.1,26.9-1.6,21.6-26.7,19.4c24.7,11.6,22.4,6,10.2,31.4
			c10.7-8.9,16.1-16,16.5-23.9c0.5,7.9,5.8,15,16.5,23.9c-12.2-25.4-14.5-19.8,10.2-31.4C296.1,293.9,299.6,299.1,294.4,272.2"/>
	</g>
	<g id="g64">
		<path id="path66" class="st0" d="M307.4,282.4c-1.6-1.2-4-0.9-5.2,0.8c-1.2,1.6-0.9,4,0.8,5.2c1.6,1.2,4,0.9,5.2-0.8c0,0,0,0,0,0
			C309.4,286,309.1,283.6,307.4,282.4"/>
	</g>
	<g id="g68">
		<path id="path70" class="st0" d="M281.4,282.4c1.6-1.2,4-0.9,5.2,0.8s0.9,4-0.8,5.2c-1.6,1.2-4,0.9-5.2-0.8c0,0,0,0,0,0
			C279.4,286,279.8,283.7,281.4,282.4C281.4,282.4,281.4,282.4,281.4,282.4"/>
	</g>
</g>
</svg>
